<svg xmlns="http://www.w3.org/2000/svg" viewBox="0 0 168.804 114.035">
    <path d="M4.66 111.114c2.37-2.51 22.1-23.206 24.885-26.102 3.94-4.097 8.701-9.078 16.343-17.094l8.18-8.58 1.869-1.958 6.294 6.124c9.166 8.917 11.909 11.499 12.217 11.499.628 0 1.624-1.316 9.79-12.936 21.685-30.857 24.928-35.4 25.117-35.185.111.126 11.676 17.276 25.7 38.111 14.025 20.835 26.94 39.996 28.7 42.58l3.201 4.696H3.571zm13.973-67.96C8.6 40.83 1.848 32.574 1.848 22.638c0-3.512.527-5.76 2.128-9.08C8.476 4.23 19.236-.435 28.828 2.78c3.59 1.204 5.516 2.424 8.473 5.368 2.165 2.155 2.889 3.13 3.936 5.3 1.726 3.578 2.293 6.366 2.088 10.276-.285 5.453-2.13 9.504-6.19 13.588-2.63 2.645-5.591 4.428-9.11 5.485-2.362.71-7.095.89-9.392.357z" fill="#78ae67"/>
</svg>
