<?xml version="1.0" encoding="utf-8"?>
<!-- Generator: Adobe Illustrator 18.0.0, SVG Export Plug-In . SVG Version: 6.00 Build 0)  -->
<!DOCTYPE svg PUBLIC "-//W3C//DTD SVG 1.1//EN" "http://www.w3.org/Graphics/SVG/1.1/DTD/svg11.dtd">
<svg version="1.1" id="Layer_1" xmlns="http://www.w3.org/2000/svg" xmlns:xlink="http://www.w3.org/1999/xlink" x="0px" y="0px"
	 viewBox="0 0 612 792" enable-background="new 0 0 612 792" >
<g>
	<polyline fill="none" stroke="#118642" stroke-miterlimit="10" points="0,50.3 88.5,50.3 88.5,32.5 0,32.5 
		4,36.5 	"/>
	<polyline fill="none" stroke="#2256A6" stroke-miterlimit="10" points="41.3,14.8 147.5,14.8 171.1,32.5 
		218.3,32.5 218.3,50.3 171.1,50.3 147.5,68 41.3,68 45.3,71.9 	"/>
	<polyline fill="none" stroke="#EE322D" stroke-miterlimit="10" points="277.3,14.8 171.1,14.8 147.5,32.5 
		100.3,32.5 100.3,50.3 147.5,50.3 171.1,68 277.3,68 273.3,71.9 	"/>
	<polyline fill="none" stroke="#FAA22B" stroke-miterlimit="10" points="318.5,50.3 230.1,50.3 230.1,32.5 
		318.5,32.5 355.9,32.5 355.9,15.2 286.6,14.8 289.1,10.8 	"/>
	<text transform="matrix(1 0 0 1 2.686783e-02 58.0514)" font-family="'Courier'" font-size="9.8305">11TGA  GGCAATCC</text>
	<text transform="matrix(1 0 0 1 2.686783e-02 30.0354)" font-family="'Courier'" font-size="9.8305">12CTA  CGCCAACA</text>
	<text transform="matrix(1 0 0 1 41.313 22.6583)" font-family="'Courier'" font-size="9.8305">21GGTTGT  CCAACTTA</text>
	<text transform="matrix(1 0 0 1 171.0783 30.0354)" font-family="'Courier'" font-size="9.8305">22AGATCC</text>
	<text transform="matrix(1 0 0 1 171.0783 58.0514)" font-family="'Courier'" font-size="9.8305">23CGAACA</text>
	<text transform="matrix(1 0 0 1 41.313 65.421)" font-family="'Courier'" font-size="9.8305">24GTTAGG  ACATTGCA</text>
	<text transform="matrix(1 0 0 1 171.0783 22.6583)" font-family="'Courier'" font-size="9.8305">31TCTAGG  ACATCTCG</text>
	<text transform="matrix(1 0 0 1 100.2969 30.0354)" font-family="'Courier'" font-size="9.8305">32TTGAAT</text>
	<text transform="matrix(1 0 0 1 100.2969 58.0514)" font-family="'Courier'" font-size="9.8305">33TAACGT</text>
	<text transform="matrix(1 0 0 1 171.0783 65.421)" font-family="'Courier'" font-size="9.8305">34GCTTGT  CCGTTCGC</text>
	<text transform="matrix(1 0 0 1 230.0617 58.0514)" font-family="'Courier'" font-size="9.8305">41CAAGCG  AGTGA</text>
	<text transform="matrix(1 0 0 1 230.0617 30.0354)" font-family="'Courier'" font-size="9.8305">42TAGAGC  ATCTC</text>
	<text transform="matrix(1 0 0 1 318.5215 30.0354)" font-family="'Courier'" font-size="9.8305">-h1-1T</text>
	<text transform="matrix(1 0 0 1 289.0576 22.6583)" font-family="'Courier'" font-size="9.8305">hp12A-GG-TT</text>
	<text transform="matrix(1 0 0 1 15.2893 15.2721)" font-family="'Courier'" font-size="11.7966">A</text>
	<text transform="matrix(1 0 0 1 296.6944 76.2276)" font-family="'Courier'" font-size="11.7966">C</text>
	<text transform="matrix(1 0 0 1 15.2893 76.2276)" font-family="'Courier'" font-size="11.7966">D</text>
	<text transform="matrix(1 0 0 1 137.0034 10.8654)" font-family="'Courier'" font-size="13.7628">TC1-A</text>
</g>
</svg>
