<?xml version="1.0" encoding="utf-8"?>
<!-- Generator: Adobe Illustrator 18.0.0, SVG Export Plug-In . SVG Version: 6.00 Build 0)  -->
<!DOCTYPE svg PUBLIC "-//W3C//DTD SVG 1.1//EN" "http://www.w3.org/Graphics/SVG/1.1/DTD/svg11.dtd">
<svg version="1.1" id="Layer_1" xmlns="http://www.w3.org/2000/svg" xmlns:xlink="http://www.w3.org/1999/xlink" x="0px" y="0px"
	 viewBox="0 0 612 792" enable-background="new 0 0 612 792" >
<g>
	<polyline fill="none" stroke="#EE322D" stroke-miterlimit="10" points="566.1,118.4 460,118.4 436.4,100.7 389.2,100.7 389.2,83 
		436.4,83 460,65.3 566.1,65.3 562.1,61.3 	"/>
	<polyline fill="none" stroke="#734722" stroke-miterlimit="10" points="607.4,83 519,83 519,100.7 607.4,100.7 603.4,96.7 	"/>
	<polyline fill="none" stroke="#118642" stroke-miterlimit="10" points="0,65.3 88.4,65.3 88.4,47.6 0,47.6 4,51.6 	"/>
	<polyline fill="none" stroke="#2256A6" stroke-miterlimit="10" points="41.3,29.9 147.4,29.9 171,47.6 218.2,47.6 218.2,65.3 
		171,65.3 147.4,83 41.3,83 45.3,87 	"/>
	<polyline fill="none" stroke="#DAAE08" stroke-miterlimit="10" points="277.2,29.9 171,29.9 147.4,47.6 100.2,47.6 100.2,65.3 
		147.4,65.3 171,83 277.2,83 289,83 377.4,83 377.4,100.7 289,100.7 293,96.7 	"/>
	<polyline fill="none" stroke="#9113C0" stroke-miterlimit="10" points="330.2,118.4 436.4,118.4 460,100.7 507.2,100.7 507.2,83 
		460,83 436.4,65.3 330.2,65.3 318.4,65.3 230,65.3 230,47.6 318.4,47.6 314.4,51.6 	"/>
	<text transform="matrix(1 0 0 1 2.270007e-02 73.2501)" font-family="'Courier'" font-size="9.8272">11TGA  GGCAATCC</text>
	<text transform="matrix(1 0 0 1 2.270007e-02 45.2455)" font-family="'Courier'" font-size="9.8272">12CTA  CGCCAACA</text>
	<text transform="matrix(1 0 0 1 41.2966 37.871)" font-family="'Courier'" font-size="9.8272">21GGTTGT  CCAACTTA</text>
	<text transform="matrix(1 0 0 1 171.0166 45.2455)" font-family="'Courier'" font-size="9.8272">22AGATCC</text>
	<text transform="matrix(1 0 0 1 171.0166 73.2501)" font-family="'Courier'" font-size="9.8272">23CGAACA</text>
	<text transform="matrix(1 0 0 1 41.2966 80.6184)" font-family="'Courier'" font-size="9.8272">24GTTAGG  ACATTGCA</text>
	<text transform="matrix(1 0 0 1 171.0166 37.871)" font-family="'Courier'" font-size="9.8272">31TCTAGG  ACATCTCG</text>
	<text transform="matrix(1 0 0 1 100.2598 45.2455)" font-family="'Courier'" font-size="9.8272">32TTGAAT</text>
	<text transform="matrix(1 0 0 1 100.2598 73.2501)" font-family="'Courier'" font-size="9.8272">33TAACGT</text>
	<text transform="matrix(1 0 0 1 171.0166 80.6184)" font-family="'Courier'" font-size="9.8272">34GCTTGT  CCGTTCGC  AAATG  CTCTATCC</text>
	<text transform="matrix(1 0 0 1 288.9678 108.6108)" font-family="'Courier'" font-size="9.8272">35TTG  GTAATCTT</text>
	<text transform="matrix(1 0 0 1 330.2406 115.9791)" font-family="'Courier'" font-size="9.8272">41TTAGAA  ACAAGTTT</text>
	<text transform="matrix(1 0 0 1 459.9596 108.6108)" font-family="'Courier'" font-size="9.8272">42ATAGCA</text>
	<text transform="matrix(1 0 0 1 459.9596 80.6025)" font-family="'Courier'" font-size="9.8272">43AGCTCC</text>
	<text transform="matrix(1 0 0 1 229.9814 73.2501)" font-family="'Courier'" font-size="9.8272">44CAAGCG  AGTGA  AAGATAGG  TGCTATAA</text>
	<text transform="matrix(1 0 0 1 229.9814 45.2455)" font-family="'Courier'" font-size="9.8272">45TAGAGC  ATCTC</text>
	<text transform="matrix(1 0 0 1 459.9596 115.9791)" font-family="'Courier'" font-size="9.8272">51TATCGT  CCGATGAC</text>
	<text transform="matrix(1 0 0 1 389.2034 108.6108)" font-family="'Courier'" font-size="9.8272">52TTCAAA</text>
	<text transform="matrix(1 0 0 1 389.2034 80.6025)" font-family="'Courier'" font-size="9.8272">53ACTTGT</text>
	<text transform="matrix(1 0 0 1 459.9596 73.2311)" font-family="'Courier'" font-size="9.8272">54TCGAGG  ACGGATCG</text>
	<text transform="matrix(1 0 0 1 518.9234 80.6025)" font-family="'Courier'" font-size="9.8272">61CCTAGC  TCACT</text>
	<text transform="matrix(1 0 0 1 518.9234 108.6108)" font-family="'Courier'" font-size="9.8272">62CTACTG  GAGAT</text>
	<text transform="matrix(1 0 0 1 15.2816 30.4873)" font-family="'Courier'" font-size="11.7926">A</text>
	<text transform="matrix(1 0 0 1 296.5908 30.4873)" font-family="'Courier'" font-size="11.7926">B</text>
	<text transform="matrix(1 0 0 1 585.5503 65.3688)" font-family="'Courier'" font-size="11.7926">C</text>
	<text transform="matrix(1 0 0 1 585.5503 126.3022)" font-family="'Courier'" font-size="11.7926">D</text>
	<text transform="matrix(1 0 0 1 304.2417 126.3022)" font-family="'Courier'" font-size="11.7926">E</text>
	<text transform="matrix(1 0 0 1 15.2816 91.4218)" font-family="'Courier'" font-size="11.7926">F</text>
	<text transform="matrix(1 0 0 1 301.1942 10.8622)" font-family="'Courier'" font-size="13.7581">TC1-A</text>
</g>
</svg>
