<?xml version="1.0" encoding="utf-8"?>
<!-- Generator: Adobe Illustrator 18.0.0, SVG Export Plug-In . SVG Version: 6.00 Build 0)  -->
<!DOCTYPE svg PUBLIC "-//W3C//DTD SVG 1.1//EN" "http://www.w3.org/Graphics/SVG/1.1/DTD/svg11.dtd">
<svg version="1.1" id="Layer_1" xmlns="http://www.w3.org/2000/svg" xmlns:xlink="http://www.w3.org/1999/xlink" x="0px" y="0px"
	 viewBox="0 0 612 792" enable-background="new 0 0 612 792" >
<g>
	<polyline fill="none" stroke="#118642" stroke-miterlimit="10" points="0,50.2 88.5,50.2 88.5,32.5 0,32.5 
		4,36.5 	"/>
	<polyline fill="none" stroke="#2256A6" stroke-miterlimit="10" points="41.3,14.8 147.5,14.8 171.1,32.5 
		218.3,32.5 218.3,50.2 171.1,50.2 147.5,68 41.3,68 45.3,71.9 	"/>
	<polyline fill="none" stroke="#EE322D" stroke-miterlimit="10" points="277.3,14.8 171.1,14.8 147.5,32.5 
		100.3,32.5 100.3,50.2 147.5,50.2 171.1,68 277.3,68 273.3,71.9 	"/>
	<polyline fill="none" stroke="#FAA22B" stroke-miterlimit="10" points="318.5,50.2 230.1,50.2 230.1,32.5 
		318.5,32.5 314.6,36.5 	"/>
	<text transform="matrix(1 0 0 1 1.226626e-02 58.05)" font-family="'Courier'" font-size="9.8305">11TGA  GGCAATCC</text>
	<text transform="matrix(1 0 0 1 1.226626e-02 30.0363)" font-family="'Courier'" font-size="9.8305">12CTA  CGCCAACA</text>
	<text transform="matrix(1 0 0 1 41.301 22.6592)" font-family="'Courier'" font-size="9.8305">21GGTTGT  CCAACTTA</text>
	<text transform="matrix(1 0 0 1 171.0637 30.0363)" font-family="'Courier'" font-size="9.8305">22AGATCC</text>
	<text transform="matrix(1 0 0 1 171.0637 58.05)" font-family="'Courier'" font-size="9.8305">23CGAACA</text>
	<text transform="matrix(1 0 0 1 41.301 65.4225)" font-family="'Courier'" font-size="9.8305">24GTTAGG  ACATTGCA</text>
	<text transform="matrix(1 0 0 1 171.0637 22.6592)" font-family="'Courier'" font-size="9.8305">31TCTAGG  ACATCTCG</text>
	<text transform="matrix(1 0 0 1 100.2844 30.0363)" font-family="'Courier'" font-size="9.8305">32TTGAAT</text>
	<text transform="matrix(1 0 0 1 100.2844 58.05)" font-family="'Courier'" font-size="9.8305">33TAACGT</text>
	<text transform="matrix(1 0 0 1 171.0637 65.4225)" font-family="'Courier'" font-size="9.8305">34GCTTGT  CCGTTCGC</text>
	<text transform="matrix(1 0 0 1 230.0499 58.05)" font-family="'Courier'" font-size="9.8305">41CAAGCG  AGTGA</text>
	<text transform="matrix(1 0 0 1 230.0499 30.0363)" font-family="'Courier'" font-size="9.8305">42TAGAGC  ATCTC</text>
	<text transform="matrix(1 0 0 1 14 15.2735)" font-family="'Courier'" font-size="11.7966"><tspan style="text-anchor:middle;text-align:center">A</tspan></text>
	<text transform="matrix(1 0 0 1 296 15.2735)" font-family="'Courier'" font-size="11.7966"><tspan style="text-anchor:middle;text-align:center">B</tspan></text>
	<text transform="matrix(1 0 0 1 296 76.2281)" font-family="'Courier'" font-size="11.7966"><tspan style="text-anchor:middle;text-align:center">C</tspan></text>
	<text transform="matrix(1 0 0 1 14 76.2281)" font-family="'Courier'" font-size="11.7966"><tspan style="text-anchor:middle;text-align:center">D</tspan></text>
	<text transform="matrix(1 0 0 1 158 10.8645)" font-family="'Courier'" font-size="13.7628"><tspan style="text-anchor:middle;text-align:center">TC1-A</tspan></text>
</g>
</svg>
