<?xml version="1.0" encoding="utf-8"?>
<!-- Generator: Adobe Illustrator 18.0.0, SVG Export Plug-In . SVG Version: 6.00 Build 0)  -->
<!DOCTYPE svg PUBLIC "-//W3C//DTD SVG 1.1//EN" "http://www.w3.org/Graphics/SVG/1.1/DTD/svg11.dtd">
<svg version="1.1" id="Layer_1" xmlns="http://www.w3.org/2000/svg" xmlns:xlink="http://www.w3.org/1999/xlink" x="0px" y="0px"
	 viewBox="0 0 612 792" enable-background="new 0 0 612 792" >
<g>
	<text transform="matrix(1 0 0 1 129.7248 30.0256)" fill="#010101" font-family="'Courier'" font-size="9.8275">S1AGCGTA  S1ACC</text>
	<text transform="matrix(1 0 0 1 129.7248 58.0384)" fill="#010101" font-family="'Courier'" font-size="9.8275">S2GTGTGT  TTCCT</text>
	<text transform="matrix(1 0 0 1 70.76 65.4095)" fill="#010101" font-family="'Courier'" font-size="9.8275">L1AACAGA  GGCACACA</text>
	<text transform="matrix(1 0 0 1 4.673004e-05 58.0384)" fill="#010101" font-family="'Courier'" font-size="9.8275">L2AGCGGG</text>
	<text transform="matrix(1 0 0 1 4.673004e-05 30.0256)" fill="#010101" font-family="'Courier'" font-size="9.8275">L3TTTACC</text>
	<text transform="matrix(1 0 0 1 70.76 22.6526)" fill="#010101" font-family="'Courier'" font-size="9.8275">L4CGCCAA  L5TCGCAT</text>
	<text transform="matrix(1 0 0 1 199.892 14.7952)" fill="#010101" font-family="'Courier'" font-size="11.7929">b1</text>
	<text transform="matrix(1 0 0 1 196.3509 75.7248)" fill="#010101" font-family="'Courier'" font-size="11.7929">b2</text>
	<text transform="matrix(1 0 0 1 101.4212 10.8624)" fill="#010101" font-family="'Courier'" font-size="13.7585">name</text>
	<polyline fill="none" stroke="#EE3724" stroke-miterlimit="10" points="176.9,68.3 70.7,68.3 47.2,50.7 
		0,50.7 0,32.9 47.2,32.9 70.7,15.3 176.9,15.3 172.1,10.9 	"/>
	<polyline fill="none" stroke="#FCB316" stroke-miterlimit="10" points="218.2,32.9 129.7,32.9 129.7,50.7 
		218.2,50.7 213.4,46.2 	"/>
</g>
</svg>
