<?xml version="1.0" encoding="utf-8"?>
<!-- Generator: Adobe Illustrator 18.0.0, SVG Export Plug-In . SVG Version: 6.00 Build 0)  -->
<!DOCTYPE svg PUBLIC "-//W3C//DTD SVG 1.1//EN" "http://www.w3.org/Graphics/SVG/1.1/DTD/svg11.dtd">
<svg version="1.1" id="Layer_1" xmlns="http://www.w3.org/2000/svg" xmlns:xlink="http://www.w3.org/1999/xlink" x="0px" y="0px"
	 viewBox="0 0 612 792" enable-background="new 0 0 612 792" >
<g>
	<polyline fill="none" stroke="#118642" stroke-miterlimit="10" points="0,94.6 88.4,94.6 88.4,76.9 0,76.9 4,80.9 	"/>
	<polyline fill="none" stroke="#2256A6" stroke-miterlimit="10" points="41.3,59.2 147.4,59.2 171,76.9 218.2,76.9 218.2,94.6 
		171,94.6 147.4,112.3 41.3,112.3 45.3,116.3 	"/>
	<polyline fill="none" stroke="#DAAE0A" stroke-miterlimit="10" points="319.7,23.5 252.5,23.5 252.5,41.3 377.4,41.3 377.4,59 
		289,59 277.2,59.2 171,59.2 147.4,76.9 100.2,76.9 100.2,94.6 147.4,94.6 171,112.3 277.2,112.3 273.2,116.3 	"/>
	<polyline fill="none" stroke="#9114C0" stroke-miterlimit="10" points="318.4,94.6 230,94.6 230,76.9 318.4,76.9 330.2,76.7 
		436.4,76.7 460,59 507.2,59 507.2,41.3 460,41.3 436.4,23.6 330.2,23.6 334.2,19.6 	"/>
	<polyline fill="none" stroke="#EE322D" stroke-miterlimit="10" points="566.1,76.7 460,76.7 436.4,59 389.2,59 389.2,41.3 
		436.4,41.3 460,23.6 566.1,23.6 561.9,19.6 	"/>
	<polyline fill="none" stroke="#734723" stroke-miterlimit="10" points="577.9,24 644.9,24 644.9,41.3 519,41.3 519,59 607.4,59 
		603.2,55 	"/>
	<text transform="matrix(1 0 0 1 9.299994e-03 102.4204)" font-family="'Courier'" font-size="9.8272">11TGA  GGCAATCC</text>
	<text transform="matrix(1 0 0 1 9.299994e-03 74.4163)" font-family="'Courier'" font-size="9.8272">12CTA  CGCCAACA</text>
	<text transform="matrix(1 0 0 1 41.2832 67.0408)" font-family="'Courier'" font-size="9.8272">21GGTTGT  CCAACTTA</text>
	<text transform="matrix(1 0 0 1 171.0022 74.4163)" font-family="'Courier'" font-size="9.8272">22AGATCC</text>
	<text transform="matrix(1 0 0 1 171.0022 102.4204)" font-family="'Courier'" font-size="9.8272">23CGAACA</text>
	<text transform="matrix(1 0 0 1 41.2832 109.7888)" font-family="'Courier'" font-size="9.8272">24GTTAGG  ACATTGCA</text>
	<text transform="matrix(1 0 0 1 254.4001 31.5879)" font-family="'Courier'" font-size="9.8272">HP21A-GG-TT</text>
	<text transform="matrix(1 0 0 1 254.4 38.9602)" font-family="'Courier'" font-size="9.8272">-hp22T</text>
	<text transform="matrix(1 0 0 1 288.925 38.9603)" font-family="'Courier'" font-size="9.8272">31ATG  CTCTATCC</text>
	<text transform="matrix(1 0 0 1 171.0022 67.0408)" font-family="'Courier'" font-size="9.8272">32TCTAGG  ACATCTCG  GATTG  GTAATCTT</text>
	<text transform="matrix(1 0 0 1 100.2459 74.4163)" font-family="'Courier'" font-size="9.8272">33TTGAAT</text>
	<text transform="matrix(1 0 0 1 100.2459 102.4204)" font-family="'Courier'" font-size="9.8272">34TAACGT</text>
	<text transform="matrix(1 0 0 1 171.0022 109.7888)" font-family="'Courier'" font-size="9.8272">35GCTTGT  CCGTTCGC</text>
	<text transform="matrix(1 0 0 1 229.9669 102.4204)" font-family="'Courier'" font-size="9.8272">41CAAGCG  AGTGA</text>
	<text transform="matrix(1 0 0 1 229.9669 74.4163)" font-family="'Courier'" font-size="9.8272">42TAGAGC  ATCTC  AATTAGAA  ACAAGTTT</text>
	<text transform="matrix(1 0 0 1 459.9179 66.9683)" font-family="'Courier'" font-size="9.8272">43ATAGCA</text>
	<text transform="matrix(1 0 0 1 459.9179 38.9603)" font-family="'Courier'" font-size="9.8272">44AGCTCC</text>
	<text transform="matrix(1 0 0 1 330.1984 31.588)" font-family="'Courier'" font-size="9.8272">45GATAGG  TGCTATAA</text>
	<text transform="matrix(1 0 0 1 459.9179 74.3359)" font-family="'Courier'" font-size="9.8272">51TATCGT  CCGATGAC</text>
	<text transform="matrix(1 0 0 1 389.1611 66.9683)" font-family="'Courier'" font-size="9.8272">52TTCAAA</text>
	<text transform="matrix(1 0 0 1 389.1611 38.9603)" font-family="'Courier'" font-size="9.8272">53CTTGT</text>
	<text transform="matrix(1 0 0 1 459.9179 31.588)" font-family="'Courier'" font-size="9.8272">54TCGAGG  ACGGATCG</text>
	<text transform="matrix(1 0 0 1 577.9001 31.5879)" font-family="'Courier'" font-size="9.8272">HP31A-GG-TT</text>
	<text transform="matrix(1 0 0 1 607.4001 38.9603)" font-family="'Courier'" font-size="9.8272">-hp32T</text>
	<text transform="matrix(1 0 0 1 518.8807 38.9603)" font-family="'Courier'" font-size="9.8272">61CCTAGC  TCACT</text>
	<text transform="matrix(1 0 0 1 518.8807 66.9683)" font-family="'Courier'" font-size="9.8272">62CTACTG  GAGAT</text>
	<text transform="matrix(1 0 0 1 15.2677 59.6581)" font-family="'Courier'" font-size="11.7926">A</text>
	<text transform="matrix(1 0 0 1 585.5086 84.6602)" font-family="'Courier'" font-size="11.7926">D</text>
	<text transform="matrix(1 0 0 1 296.5769 120.5916)" font-family="'Courier'" font-size="11.7926">E</text>
	<text transform="matrix(1 0 0 1 15.2677 120.5916)" font-family="'Courier'" font-size="11.7926">F</text>
	<text transform="matrix(1 0 0 1 277.0831 10.8625)" font-family="'Courier'" font-size="13.7581">TC1-A</text>
</g>
</svg>
