<?xml version="1.0" encoding="utf-8"?>
<!-- Generator: Adobe Illustrator 18.0.0, SVG Export Plug-In . SVG Version: 6.00 Build 0)  -->
<!DOCTYPE svg PUBLIC "-//W3C//DTD SVG 1.1//EN" "http://www.w3.org/Graphics/SVG/1.1/DTD/svg11.dtd">
<svg version="1.1" id="Layer_1" xmlns="http://www.w3.org/2000/svg" xmlns:xlink="http://www.w3.org/1999/xlink" x="0px" y="0px"
	 viewBox="0 0 612 792" enable-background="new 0 0 612 792" >
<g>
	<polyline fill="none" stroke="#118642" stroke-miterlimit="10" points="0,32.9 88.5,32.9 88.5,50.6 0,50.6 
		4,46.6 	"/>
	<polyline fill="none" stroke="#2256A6" stroke-miterlimit="10" points="41.3,68.3 147.5,68.3 171.1,50.6 
		218.3,50.6 218.3,32.9 171.1,32.9 147.5,15.2 41.3,15.2 45.3,11.2 	"/>
	<polyline fill="none" stroke="#EE322D" stroke-miterlimit="10" points="277.3,68.3 171.1,68.3 147.5,50.6 
		100.3,50.6 100.3,32.9 147.5,32.9 171.1,15.2 277.3,15.2 273.3,11.2 	"/>
	<polyline fill="none" stroke="#FAA22B" stroke-miterlimit="10" points="318.5,32.9 230.1,32.9 230.1,50.6 
		318.5,50.6 314.6,46.6 	"/>
	<text transform="matrix(1 0 0 1 1.998566e-04 30.5123)" font-family="'Courier'" font-size="9.8305">11ATG  CTCTATCC</text>
	<text transform="matrix(1 0 0 1 1.998566e-04 58.5304)" font-family="'Courier'" font-size="9.8305">12TTG  GTAATCTT</text>
	<text transform="matrix(1 0 0 1 41.2864 65.9005)" font-family="'Courier'" font-size="9.8305">21TTAGAA  ACAAGTTT</text>
	<text transform="matrix(1 0 0 1 171.0509 58.5304)" font-family="'Courier'" font-size="9.8305">22ATAGCA</text>
	<text transform="matrix(1 0 0 1 171.0509 30.5123)" font-family="'Courier'" font-size="9.8305">23AGCTCC</text>
	<text transform="matrix(1 0 0 1 41.2864 23.1377)" font-family="'Courier'" font-size="9.8305">24GATAGG  TGCTATAA</text>
	<text transform="matrix(1 0 0 1 171.0509 65.9005)" font-family="'Courier'" font-size="9.8305">31TATCGT  CCGATGAC</text>
	<text transform="matrix(1 0 0 1 100.2696 58.5304)" font-family="'Courier'" font-size="9.8305">32TTCAAA</text>
	<text transform="matrix(1 0 0 1 100.2696 30.5123)" font-family="'Courier'" font-size="9.8305">33ACTTGT</text>
	<text transform="matrix(1 0 0 1 171.0509 23.1377)" font-family="'Courier'" font-size="9.8305">34TCGAGG  ACGGATCG</text>
	<text transform="matrix(1 0 0 1 230.0322 30.5123)" font-family="'Courier'" font-size="9.8305">41CCTAGC  TCACT</text>
	<text transform="matrix(1 0 0 1 230.0322 58.5304)" font-family="'Courier'" font-size="9.8305">42CTACTG  GAGAT</text>
	<text transform="matrix(1 0 0 1 14 15.2735)" font-family="'Courier'" font-size="11.7966"><tspan style="text-anchor:middle;text-align:center">A</tspan></text>
	<text transform="matrix(1 0 0 1 296 15.2735)" font-family="'Courier'" font-size="11.7966"><tspan style="text-anchor:middle;text-align:center">B</tspan></text>
	<text transform="matrix(1 0 0 1 296 76.2281)" font-family="'Courier'" font-size="11.7966"><tspan style="text-anchor:middle;text-align:center">C</tspan></text>
	<text transform="matrix(1 0 0 1 14 76.2281)" font-family="'Courier'" font-size="11.7966"><tspan style="text-anchor:middle;text-align:center">D</tspan></text>
	<text transform="matrix(1 0 0 1 158 10.8645)" font-family="'Courier'" font-size="13.7628"><tspan style="text-anchor:middle;text-align:center">TC1-A</tspan></text>
</g>
</svg>
