<?xml version="1.0" encoding="UTF-8"?>
<svg width="71px" height="37px" viewBox="0 0 71 37" version="1.1" xmlns="http://www.w3.org/2000/svg" xmlns:xlink="http://www.w3.org/1999/xlink">
    <!-- Generator: Sketch 53.2 (72643) - https://sketchapp.com -->
    <title>icon/device/battery_std_24px</title>
    <desc>Created with Sketch.</desc>
    <g id="Dashboard-Launch-Version-v2" stroke="none" stroke-width="1" fill="none" fill-rule="evenodd">
        <g id="Dashboard-w/-Navbar" transform="translate(-80.000000, -265.000000)" fill="#E02020" fill-rule="nonzero">
            <g id="battery-copy" transform="translate(80.000000, 265.000000)">
                <path d="M48.712,-9.9 L42.7,-9.9 L42.7,-13.45 C42.7,-15.4025 41.08,-17 39.1,-17 L31.9,-17 C29.92,-17 28.3,-15.4025 28.3,-13.45 L28.3,-9.9 L22.288,-9.9 C19.66,-9.9 17.5,-7.77 17.5,-5.1785 L17.5,49.243 C17.5,51.87 19.66,54 22.324,54 L48.676,54 C51.34,54 53.5,51.87 53.5,49.2785 L53.5,-5.1785 C53.5,-7.77 51.34,-9.9 48.712,-9.9 Z" id="icon/device/battery_std_24px" transform="translate(35.500000, 18.500000) rotate(-270.000000) translate(-35.500000, -18.500000) "></path>
            </g>
        </g>
    </g>
</svg>